<svg data-v-fde0c5aa="" xmlns="http://www.w3.org/2000/svg" viewBox="0 0 300 300" class="font"><!----><defs data-v-fde0c5aa=""><!----></defs><rect data-v-fde0c5aa="" fill="transparent" x="0" y="0" width="300px" height="300px" class="logo-background-square"></rect><defs data-v-fde0c5aa=""><linearGradient data-v-fde0c5aa="" gradientTransform="rotate(25)" id="8a82ecbf-c3dd-4cfa-bbe1-877e878aa2fe" x1="0%" y1="0%" x2="100%" y2="0%"><stop data-v-fde0c5aa="" offset="0%" stop-color="#7D7D7D" stop-opacity="1"></stop><stop data-v-fde0c5aa="" offset="100%" stop-color="#902F2F" stop-opacity="1"></stop></linearGradient></defs><g data-v-fde0c5aa="" id="138694a4-23ef-4fcd-a398-ed61247f9b1a" fill="url(#8a82ecbf-c3dd-4cfa-bbe1-877e878aa2fe)" transform="matrix(4.821092128753662,0,0,4.821092128753662,40.583804143126194,95.73446327683615)"><path d="M2.23 7.48L2.23 7.48L2.23 7.48Q1.63 7.48 1.32 7.18L1.32 7.18L1.32 7.18Q1.01 6.89 1.01 6.47L1.01 6.47L1.01 6.47Q1.01 6.05 1.35 5.77L1.35 5.77L1.35 5.77Q1.69 5.50 2.25 5.50L2.25 5.50L2.25 5.50Q2.81 5.50 3.14 5.78L3.14 5.78L3.14 5.78Q3.47 6.06 3.47 6.47L3.47 6.47L3.47 6.47Q3.47 6.89 3.14 7.18L3.14 7.18L3.14 7.18Q2.82 7.48 2.23 7.48ZM0.33 17.01L-0.12 16.13L0.21 15.89L0.21 15.89Q0.61 15.58 0.78 15.35L0.78 15.35L0.78 15.35Q0.96 15.12 1.10 14.88L1.10 14.88L1.10 14.88Q1.24 14.64 1.33 14.38L1.33 14.38L1.33 14.38Q1.52 13.79 1.52 13.06L1.52 13.06L1.52 9.83L0.51 9.26L0.68 8.36L2.88 8.21L3.17 8.48L3.17 13.37L3.17 13.37Q3.17 15.47 1.37 16.53L1.37 16.53L1.37 16.53Q1.05 16.71 0.66 16.89L0.66 16.89L0.33 17.01ZM11.15 6.73L11.15 6.73L10.63 6.75L10.63 9.97L11.83 9.97L11.83 9.97Q12.91 9.50 12.91 8.42L12.91 8.42L12.91 8.42Q12.91 7.69 12.43 7.21L12.43 7.21L12.43 7.21Q11.96 6.73 11.15 6.73ZM11.68 14.40L7.38 14.40L7.49 13.67L8.70 13.24L8.70 7.23L7.46 6.97L7.54 6.16L7.54 6.16Q9.64 5.82 11.37 5.82L11.37 5.82L11.37 5.82Q13.10 5.82 14.05 6.34L14.05 6.34L14.05 6.34Q14.99 6.86 14.99 8.07L14.99 8.07L14.99 8.07Q14.99 8.84 14.43 9.50L14.43 9.50L14.43 9.50Q13.86 10.15 13.07 10.43L13.07 10.43L14.10 11.84L14.10 11.84Q15.02 13.09 15.59 13.41L15.59 13.41L15.59 13.41Q15.86 13.56 16.19 13.64L16.19 13.64L16.44 13.71L16.28 14.40L16.28 14.40Q15.78 14.56 15.13 14.56L15.13 14.56L15.13 14.56Q14.16 14.56 13.50 14.04L13.50 14.04L13.50 14.04Q12.84 13.52 12.33 12.56L12.33 12.56L11.48 10.99L10.63 10.99L10.63 13.18L11.76 13.58L11.68 14.40ZM19.40 9.13L19.40 9.13L19.40 9.13Q18.25 9.13 18.25 10.90L18.25 10.90L18.25 10.90Q18.25 12.56 18.87 13.22L18.87 13.22L18.87 13.22Q19.22 13.58 19.76 13.58L19.76 13.58L19.76 13.58Q20.30 13.58 20.57 13.15L20.57 13.15L20.57 13.15Q20.84 12.71 20.84 12.12L20.84 12.12L20.84 12.12Q20.84 11.53 20.81 11.16L20.81 11.16L20.81 11.16Q20.77 10.78 20.67 10.40L20.67 10.40L20.67 10.40Q20.57 10.02 20.41 9.75L20.41 9.75L20.41 9.75Q20.06 9.13 19.40 9.13ZM16.67 12.58L16.67 12.58L16.67 12.58Q16.50 12.02 16.50 11.31L16.50 11.31L16.50 11.31Q16.50 10.60 16.78 9.96L16.78 9.96L16.78 9.96Q17.06 9.32 17.51 8.91L17.51 8.91L17.51 8.91Q18.48 8.06 19.78 8.06L19.78 8.06L19.78 8.06Q21.08 8.06 21.84 8.88L21.84 8.88L21.84 8.88Q22.61 9.71 22.61 11.21L22.61 11.21L22.61 11.21Q22.61 12.72 21.74 13.65L21.74 13.65L21.74 13.65Q20.88 14.58 19.52 14.58L19.52 14.58L19.52 14.58Q17.28 14.58 16.67 12.58ZM25.52 11.71L25.52 11.71Q25.52 12.41 25.72 12.70L25.72 12.70L25.72 12.70Q25.92 13.00 26.41 13.00L26.41 13.00L26.41 13.00Q26.89 13.00 27.35 12.56L27.35 12.56L27.35 9.86L26.41 9.46L26.56 8.44L28.79 8.20L29.04 8.46L29.04 12.39L29.04 12.39Q29.04 12.88 29.22 13.07L29.22 13.07L29.22 13.07Q29.39 13.26 29.88 13.40L29.88 13.40L30.13 13.47L30.02 14.33L30.02 14.33Q29.29 14.59 28.70 14.59L28.70 14.59L28.70 14.59Q28.11 14.59 27.79 14.33L27.79 14.33L27.79 14.33Q27.48 14.08 27.48 13.59L27.48 13.59L27.48 13.51L27.39 13.49L27.39 13.49Q27.06 14.02 26.56 14.30L26.56 14.30L26.56 14.30Q26.06 14.58 25.49 14.58L25.49 14.58L25.49 14.58Q24.62 14.58 24.22 14.11L24.22 14.11L24.22 14.11Q23.82 13.64 23.82 12.57L23.82 12.57L23.82 9.82L22.92 9.27L23.08 8.37L25.25 8.22L25.52 8.49L25.52 11.71ZM32.83 12.10L32.83 12.10Q32.83 12.69 33.06 12.95L33.06 12.95L33.06 12.95Q33.28 13.20 33.76 13.20L33.76 13.20L33.76 13.20Q34.23 13.20 34.71 12.91L34.71 12.91L34.88 13.55L34.88 13.55Q34.58 13.98 34.05 14.27L34.05 14.27L34.05 14.27Q33.53 14.55 32.73 14.55L32.73 14.55L32.73 14.55Q31.94 14.55 31.53 14.10L31.53 14.10L31.53 14.10Q31.12 13.64 31.13 12.50L31.13 12.50L31.15 9.45L30.38 9.45L30.38 8.76L30.38 8.76Q31.35 8.10 32.12 7L32.12 7L32.86 7L32.86 8.50L34.76 8.50L34.69 9.47L32.84 9.47L32.83 12.10ZM38.60 10.23L38.60 10.23L38.60 10.23Q38.60 9.12 37.84 9.12L37.84 9.12L37.84 9.12Q37.45 9.12 37.18 9.59L37.18 9.59L37.18 9.59Q36.91 10.07 36.89 10.88L36.89 10.88L38.56 10.72L38.56 10.72Q38.60 10.55 38.60 10.23ZM35.18 11.46L35.18 11.46L35.18 11.46Q35.18 10.72 35.45 10.07L35.45 10.07L35.45 10.07Q35.72 9.42 36.16 9.00L36.16 9.00L36.16 9.00Q37.10 8.08 38.27 8.08L38.27 8.08L38.27 8.08Q39.20 8.08 39.76 8.72L39.76 8.72L39.76 8.72Q40.33 9.35 40.33 10.43L40.33 10.43L40.33 10.43Q40.33 10.94 40.20 11.48L40.20 11.48L36.91 11.55L36.91 11.55Q36.96 12.33 37.43 12.85L37.43 12.85L37.43 12.85Q37.91 13.37 38.78 13.37L38.78 13.37L38.78 13.37Q39.65 13.37 40.35 12.99L40.35 12.99L40.48 13.62L40.48 13.62Q40.07 14.12 39.36 14.36L39.36 14.36L39.36 14.36Q38.66 14.60 37.93 14.60L37.93 14.60L37.93 14.60Q36.74 14.60 35.96 13.78L35.96 13.78L35.96 13.78Q35.18 12.96 35.18 11.46ZM43.06 14.64L43.06 14.64L43.06 14.64Q42.08 14.64 41.44 14.26L41.44 14.26L41.44 14.26Q40.80 13.89 40.80 13.41L40.80 13.41L40.80 13.41Q40.80 12.92 41.09 12.65L41.09 12.65L41.09 12.65Q41.38 12.39 41.90 12.35L41.90 12.35L41.90 12.35Q42.10 13.04 42.44 13.40L42.44 13.40L42.44 13.40Q42.77 13.75 43.18 13.75L43.18 13.75L43.18 13.75Q44.00 13.75 44.00 13.19L44.00 13.19L44.00 13.19Q44.00 12.78 43.22 12.41L43.22 12.41L43.22 12.41Q42.42 12.03 41.77 11.55L41.77 11.55L41.77 11.55Q41.44 11.31 41.22 10.93L41.22 10.93L41.22 10.93Q41.00 10.55 41.00 10.17L41.00 10.17L41.00 10.17Q41.00 9.78 41.13 9.45L41.13 9.45L41.13 9.45Q41.26 9.12 41.53 8.80L41.53 8.80L41.53 8.80Q41.79 8.48 42.28 8.28L42.28 8.28L42.28 8.28Q42.76 8.08 43.51 8.08L43.51 8.08L43.51 8.08Q44.26 8.08 44.80 8.38L44.80 8.38L44.80 8.38Q45.34 8.68 45.34 9.18L45.34 9.18L45.34 9.18Q45.34 9.67 45.02 9.96L45.02 9.96L45.02 9.96Q44.70 10.25 44.21 10.29L44.21 10.29L44.08 9.86L44.08 9.86Q43.83 8.87 43.05 8.87L43.05 8.87L43.05 8.87Q42.74 8.87 42.56 9.06L42.56 9.06L42.56 9.06Q42.38 9.24 42.38 9.50L42.38 9.50L42.38 9.50Q42.38 9.76 42.61 9.98L42.61 9.98L42.61 9.98Q42.84 10.21 43.19 10.38L43.19 10.38L43.19 10.38Q43.54 10.55 43.94 10.78L43.94 10.78L43.94 10.78Q44.34 11.01 44.69 11.25L44.69 11.25L44.69 11.25Q45.04 11.49 45.27 11.87L45.27 11.87L45.27 11.87Q45.51 12.26 45.51 12.71L45.51 12.71L45.51 12.71Q45.51 13.58 44.77 14.11L44.77 14.11L44.77 14.11Q44.04 14.64 43.06 14.64Z"></path></g><!----><!----></svg>